<svg width="182" height="182" viewBox="0 0 182 182" fill="none" xmlns="http://www.w3.org/2000/svg">
<g clip-path="url(#clip0)">
<g opacity="0.75" filter="url(#filter0_d)">
<path d="M91 0C40.7995 0 0 40.7995 0 91C0 141.2 40.8367 182 91 182C141.2 182 182 141.163 182 91C182 40.7995 141.2 0 91 0ZM91 169.255C47.8595 169.255 12.7452 134.14 12.7452 91C12.7452 47.8595 47.8595 12.7452 91 12.7452C134.14 12.7452 169.255 47.8595 169.255 91C169.255 134.14 134.14 169.255 91 169.255Z" fill="#E3E3E3"/>
</g>
<g opacity="0.75" filter="url(#filter1_d)">
<path d="M139.677 85.6493L74.3532 43.735C72.3838 42.4716 69.8942 42.3973 67.8505 43.5121C65.8068 44.6268 64.5435 46.782 64.5435 49.0858V132.877C64.5435 135.218 65.8068 137.336 67.8505 138.451C68.8166 138.971 69.8571 139.231 70.8975 139.231C72.0865 139.231 73.2756 138.897 74.3532 138.228L139.677 96.3508C141.498 95.1617 142.612 93.1552 142.612 91C142.575 88.8449 141.498 86.8012 139.677 85.6493ZM77.2515 121.247V60.7534L124.405 91L77.2515 121.247Z" fill="#E3E3E3"/>
</g>
</g>
<defs>
<filter id="filter0_d" x="-10" y="-6" width="202" height="202" filterUnits="userSpaceOnUse" color-interpolation-filters="sRGB">
<feFlood flood-opacity="0" result="BackgroundImageFix"/>
<feColorMatrix in="SourceAlpha" type="matrix" values="0 0 0 0 0 0 0 0 0 0 0 0 0 0 0 0 0 0 127 0"/>
<feOffset dy="4"/>
<feGaussianBlur stdDeviation="5"/>
<feColorMatrix type="matrix" values="0 0 0 0 0 0 0 0 0 0 0 0 0 0 0 0 0 0 0.25 0"/>
<feBlend mode="normal" in2="BackgroundImageFix" result="effect1_dropShadow"/>
<feBlend mode="normal" in="SourceGraphic" in2="effect1_dropShadow" result="shape"/>
</filter>
<filter id="filter1_d" x="54.5435" y="36.7283" width="98.069" height="116.503" filterUnits="userSpaceOnUse" color-interpolation-filters="sRGB">
<feFlood flood-opacity="0" result="BackgroundImageFix"/>
<feColorMatrix in="SourceAlpha" type="matrix" values="0 0 0 0 0 0 0 0 0 0 0 0 0 0 0 0 0 0 127 0"/>
<feOffset dy="4"/>
<feGaussianBlur stdDeviation="5"/>
<feColorMatrix type="matrix" values="0 0 0 0 0 0 0 0 0 0 0 0 0 0 0 0 0 0 0.25 0"/>
<feBlend mode="normal" in2="BackgroundImageFix" result="effect1_dropShadow"/>
<feBlend mode="normal" in="SourceGraphic" in2="effect1_dropShadow" result="shape"/>
</filter>
<clipPath id="clip0">
<rect width="182" height="182" fill="white"/>
</clipPath>
</defs>
</svg>
