<?xml version="1.0" encoding="utf-8"?>
<!-- Generator: Adobe Illustrator 24.0.0, SVG Export Plug-In . SVG Version: 6.00 Build 0)  -->
<svg version="1.1" id="Layer_1" xmlns="http://www.w3.org/2000/svg" xmlns:xlink="http://www.w3.org/1999/xlink" x="0px" y="0px"
	 viewBox="0 0 1280 350" style="enable-background:new 0 0 1280 350;" xml:space="preserve">
<style type="text/css">
	.st0{fill:#FFFFFF;}
</style>
<g>
	<polygon class="st0" points="77.54,0.23 77.54,39.05 155.17,39.05 155.17,155.78 77.54,155.78 77.54,194.32 193.8,194.32 
		193.8,0.23 	"/>
	<rect y="0.23" class="st0" width="38.91" height="349.54"/>
	<rect x="271.53" y="0.23" class="st0" width="38.72" height="349.54"/>
	<polygon class="st0" points="349.05,0.23 349.05,39.05 426.61,39.05 426.61,155.78 465.41,155.78 465.41,0.23 	"/>
	<rect x="349.05" y="155.78" class="st0" width="77.57" height="38.54"/>
	<rect x="426.61" y="194.32" class="st0" width="38.8" height="155.45"/>
	<polygon class="st0" points="542.97,0.23 542.97,349.77 620.68,349.77 620.68,310.95 581.72,310.95 581.72,39.05 620.68,39.05 
		620.68,0.23 	"/>
	<polygon class="st0" points="659.35,0.23 659.35,39.05 698.23,39.05 698.23,310.95 659.35,310.95 659.35,349.77 737.02,349.77 
		737.02,0.23 	"/>
	<polygon class="st0" points="969.74,310.95 930.92,310.95 930.92,349.77 1008.38,349.77 1008.38,0.23 969.74,0.23 	"/>
	<polygon class="st0" points="853.39,0.23 814.57,0.23 814.57,349.77 891.93,349.77 891.93,310.95 853.39,310.95 	"/>
	<polygon class="st0" points="1086.07,0.23 1086.07,349.77 1124.73,349.77 1124.73,39.05 1163.64,39.05 1163.64,0.23 	"/>
	<polygon class="st0" points="1202.46,0.23 1202.46,39.05 1241.09,39.05 1241.09,349.77 1280,349.77 1280,0.23 	"/>
</g>
</svg>
